<svg width="16" height="16" viewBox="0 0 16 16" fill="none" xmlns="http://www.w3.org/2000/svg">
<g clip-path="url(#clip0_3672_600)">
<path d="M4.56585 -0.024133C5.73826 -0.0391567 6.94478 -0.0256917 8.11969 -0.0259143C8.11969 0.25859 8.13437 0.569692 8.14239 0.856367L9.90061 0.864102L9.91997 1.74472L10.7902 1.75601L10.8003 2.63796L11.6811 2.64686L11.6822 7.09577L10.7964 7.10818L10.798 7.98151L11.6816 7.98679C11.6833 8.27536 11.695 8.57906 11.7022 8.86885L12.5708 8.8767L12.5792 7.98868L14.3514 7.98752L14.3531 9.76627L13.4739 9.78452C13.4572 10.3492 13.4656 10.9776 13.4628 11.5466L12.5847 11.5666L12.5719 12.4407L11.6866 12.4431L11.6816 13.3277L10.7969 13.3419L10.7902 14.2206L9.90495 14.221L9.90133 15.1084L9.02562 15.1263L9.00892 16L7.23535 15.9988L7.22088 15.1306C6.95396 15.1106 6.61425 15.1124 6.34116 15.1061L6.34383 14.224L3.67394 14.218L3.65937 13.3484C3.39756 13.3305 3.04996 13.3316 2.78109 13.3253L2.78081 12.4394L3.6612 12.4318C3.68991 11.5804 3.66765 10.6491 3.66254 9.79131C3.39767 9.76911 3.05296 9.77133 2.78142 9.76521L2.77269 8.00031C2.49197 7.98824 2.17703 7.98941 1.89347 7.98457L1.87766 7.12449C1.62393 7.09711 1.26253 7.1 1 7.09416L1.00084 2.64625L1.87939 2.63824L1.89319 1.75629L2.77352 1.75033L2.78476 0.866328L4.55417 0.860431L4.56585 -0.024133Z" fill="black"/>
<path d="M4.5609 0.863281L8.11913 0.865507L8.12052 1.75402L9.00614 1.7523L9.901 1.75397L9.9015 2.64114L10.7897 2.64471L10.788 7.09156L9.90117 7.09239L9.90122 7.98352L9.00937 7.98313L9.01126 8.87421H4.56085L4.55968 7.98491L2.77875 7.98486L2.77909 7.09534L1.88523 7.0954L1.88779 6.20288L1.88896 5.31064L1.88913 2.6427L2.78087 2.64443L2.78048 1.7538L4.56257 1.7568L4.5609 0.863281Z" fill="#3C85C6"/>
<path d="M6.33837 4.42288L9.01426 4.42188L9.0131 5.31339L9.90283 5.31211L9.90117 7.09293L9.90122 7.98406L9.00937 7.98367L9.01126 8.87474H4.56085L4.55968 7.98545L4.55845 7.09582L4.56351 6.20753L5.44875 6.20035L5.45336 5.31684L6.33904 5.30989L6.33837 4.42288Z" fill="#FEFEFE"/>
<path d="M9.0131 5.31378L9.90283 5.3125L9.90117 7.09331L9.90122 7.98444L9.00937 7.98405L9.01126 8.87513H4.56085L4.55968 7.98583L6.34093 7.98133C6.60145 7.9821 6.97978 7.99379 7.23084 7.98116L8.12035 7.98511L8.11991 7.09593L9.01081 7.09521L9.0131 5.31378Z" fill="#DAD9D9"/>
<path d="M6.34032 6.20764L7.23062 6.20703L7.23084 7.98378C6.97978 7.99641 6.60145 7.98473 6.34093 7.98395L6.34032 6.20764Z" fill="black"/>
<path d="M1.88913 2.64268L2.78087 2.64441L3.67116 2.64062L3.67289 4.42277L5.45314 4.42149L5.45336 5.31629L5.44875 6.1998L4.56351 6.20698L4.55845 7.09527L4.55968 7.9849L2.77875 7.98484L2.77909 7.09532L1.88523 7.09538L1.88779 6.20286L1.88896 5.31062L1.88913 2.64268Z" fill="#27D7D7"/>
<path d="M1.88779 6.20346L2.77847 6.20312L3.67033 6.20618L4.56351 6.20758L4.55845 7.09587L4.55968 7.98549L2.77875 7.98544L2.77909 7.09592L1.88523 7.09598L1.88779 6.20346Z" fill="#FE9900"/>
<path d="M1.88779 6.20346L2.77847 6.20312L2.77909 7.09592L1.88523 7.09598L1.88779 6.20346Z" fill="#FFFE00"/>
<path d="M3.67033 6.20703L4.56351 6.20842L4.55845 7.09671L3.66944 7.09727L3.67033 6.20703Z" fill="#3C85C6"/>
<path d="M1.88896 5.3125L2.78026 5.31606L2.77847 6.20441L1.88779 6.20474L1.88896 5.3125Z" fill="#3C85C6"/>
<path d="M4.55784 5.31713L5.45336 5.31641L5.44875 6.19991L4.56351 6.20709L4.55784 5.31713Z" fill="#3C85C6"/>
<path d="M9.00614 1.75391L9.901 1.75558L9.9015 2.64275L9.00987 2.6511L9.00614 1.75391Z" fill="#27D7D7"/>
<path d="M5.45025 9.76562L8.11841 9.76824L8.1193 10.6541L8.12074 12.4387L8.1193 13.3249L7.22884 13.3234L5.44947 13.3252L4.55895 13.3253L3.66905 13.3261L3.67094 12.4386L4.55957 12.4388L4.55823 10.6548L5.45003 10.6558L5.45025 9.76562Z" fill="#27D7D7"/>
<path d="M5.45025 9.76562L8.11841 9.76824L8.1193 10.6541L8.12074 12.4387L7.23167 12.4348L7.22978 11.546L5.45042 11.5462L5.45003 10.6558L5.45025 9.76562Z" fill="black"/>
<path d="M5.45025 9.76562L8.11841 9.76824L8.1193 10.6541C7.23546 10.6451 6.33531 10.655 5.45003 10.6558L5.45025 9.76562Z" fill="#3C85C6"/>
<path d="M4.55957 12.4396L5.45158 12.4375L5.44947 13.326L4.55895 13.3261L3.66905 13.3268L3.67094 12.4394L4.55957 12.4396Z" fill="#3C85C6"/>
<path d="M4.55957 12.4377L4.55895 13.3242L3.66905 13.325L3.67094 12.4375L4.55957 12.4377Z" fill="#FE9900"/>
<path d="M7.23167 12.4336L8.12074 12.4375L8.1193 13.3237L7.22884 13.3222L7.23167 12.4336Z" fill="#3C85C6"/>
<path d="M8.1193 10.6523L10.7913 10.6538L10.7902 12.4415L10.788 13.3218L9.9 13.3217L9.01204 13.3248L9.01193 12.4312L8.12074 12.4369L8.1193 10.6523Z" fill="#27D7D7"/>
<path d="M9.8995 12.4375L10.7902 12.4428L10.788 13.3232L9.9 13.323L9.8995 12.4375Z" fill="#3C85C6"/>
<path d="M9.00937 7.98438L9.90122 7.98476L10.7897 7.98877L10.7908 8.87806L11.68 8.87901L11.6822 9.76802L12.5725 9.7678L12.5708 11.5437L11.6833 11.5461V10.653L10.7913 10.657L10.7919 9.76335L9.01165 9.76491L9.01126 8.87545L9.00937 7.98438Z" fill="#3C85C6"/>
<path d="M9.00937 7.98438L9.90122 7.98476L9.90367 8.87923L9.01126 8.87545L9.00937 7.98438Z" fill="black"/>
<path d="M7.23039 14.2188H9.01176L9.0092 15.1065L7.23028 15.1085L7.23039 14.2188Z" fill="#FE9900"/>
<path d="M4.56085 8.875L4.55795 9.7644L3.66988 9.76335L3.66949 8.87628L4.56085 8.875Z" fill="#3C85C6"/>
<path d="M12.5747 8.87891L13.4617 8.8808L13.4589 9.76475L12.5725 9.76909L12.5747 8.87891Z" fill="#3C85C6"/>
</g>
<defs>
<clipPath id="clip0_3672_600">
<rect width="16" height="16" fill="white"/>
</clipPath>
</defs>
</svg>
